<svg width="39" height="39" viewBox="0 0 39 39" fill="none" xmlns="http://www.w3.org/2000/svg">
<path d="M15.7855 18.3864C14.9324 19.2265 14.9149 20.6005 15.7549 21.4537C16.5949 22.307 17.96 22.3245 18.8219 21.4843C18.8831 21.4231 18.9444 21.3531 18.9969 21.2918C19.7406 24.8273 20.0644 25.2999 20.5325 25.2999C20.585 25.2999 20.6419 25.2911 20.7032 25.2824C21.3507 25.1905 21.3638 25.1905 21.8713 16.6405C21.8801 16.4655 21.8932 16.2861 21.902 16.1111C21.9107 16.2248 21.9238 16.343 21.9326 16.448C22.5495 22.832 22.5495 22.832 23.0089 23.0071C23.5995 23.239 23.9014 22.7052 24.5445 21.5369C24.7152 21.2349 24.9689 20.7667 25.1308 20.5392C25.8833 20.6223 27.944 20.7842 28.5609 19.9835C28.6834 19.8304 28.8453 19.5766 29.0203 19.2834C29.2522 18.9202 29.7335 18.1545 30.0353 17.8613C30.1753 18.032 30.3503 18.3164 30.4904 18.5395C31.0766 19.4759 31.7373 20.5305 32.6517 20.5523H32.6823L37.4512 20.5611H38.9956V21.2437C38.9956 23.996 36.7643 26.2188 34.0211 26.2188H26.229V34.0249C26.229 36.7684 23.9976 39 21.2457 39H17.7543C15.0111 39 12.7798 36.7684 12.7798 34.0249V26.2232H4.97453C2.23132 26.2232 0 24.0003 0 21.2481V17.7563C0 15.004 2.23132 12.7812 4.97453 12.7812H12.7798V4.97509C12.7798 2.23157 15.0111 0 17.7543 0H21.2457C23.9976 0 26.229 2.23157 26.229 4.97509V12.7812H34.0255C36.7687 12.7812 39 15.004 39 17.7563V19.4103H37.4556L32.7129 19.4015C32.7129 19.4015 32.7042 19.4015 32.6954 19.4015C32.3935 19.4015 31.7285 18.3339 31.4748 17.927C31.1423 17.4019 30.8841 16.9906 30.5822 16.7718C30.3985 16.6318 30.1578 16.588 29.9303 16.6318C29.3003 16.7543 28.7622 17.555 28.0534 18.6708C27.9003 18.9246 27.7603 19.1478 27.6684 19.2615C27.384 19.4978 25.7521 19.4759 25.0477 19.3622C24.492 19.279 24.2164 19.7604 23.5558 20.9549C23.4158 19.7472 23.2407 17.9182 23.0964 16.343C22.4663 9.81454 22.4663 9.81454 21.9107 9.70515C21.7444 9.67452 21.5694 9.7139 21.4382 9.81892C21.1319 10.0508 21.1144 10.064 20.725 16.5705C20.6157 18.3558 20.4932 20.5217 20.3707 22.1451C20.2481 21.6156 20.1038 20.9593 19.9419 20.1454L19.92 20.0623C19.8588 19.756 19.6838 19.5766 19.4256 19.4759C19.3469 19.0909 19.1587 18.7233 18.8569 18.4214C18.0168 17.5638 16.6474 17.5507 15.7855 18.3864Z" fill="url(#paint0_linear_960_120)"/>
<defs>
<linearGradient id="paint0_linear_960_120" x1="3.1655" y1="26.8223" x2="38.7579" y2="10.877" gradientUnits="userSpaceOnUse">
<stop offset="4.1024e-07" stop-color="#7175B7"/>
<stop offset="0.0934" stop-color="#6E71B3"/>
<stop offset="0.6815" stop-color="#5B5CA0"/>
<stop offset="1" stop-color="#54549A"/>
</linearGradient>
</defs>
</svg>
